<svg xmlns="http://www.w3.org/2000/svg" viewBox="15 7 66 70" fill="none">
  <defs>
    <linearGradient id="g" x1="20" y1="10" x2="76" y2="90" gradientUnits="userSpaceOnUse">
      <stop offset="0%" stop-color="#c0c0ff" stop-opacity="0.9"/>
      <stop offset="100%" stop-color="#6a5acd" stop-opacity="0.7"/>
    </linearGradient>
  </defs>
  <!-- Ghost body -->
  <path d="M48 8C28 8 16 24 16 42v30c0 2 1 4 3 4s4-3 5-6c1-3 3-5 5-5s4 2 5 5c1 3 3 6 5 6s4-3 5-6c1-3 3-5 5-5s4 2 5 5c1 3 3 6 5 6s3-2 3-4V42C80 24 68 8 48 8z" fill="url(#g)" stroke="rgba(255,255,255,0.3)" stroke-width="1.5"/>
  <!-- Eyes -->
  <circle cx="38" cy="38" r="5" fill="#1a1a2e"/>
  <circle cx="58" cy="38" r="5" fill="#1a1a2e"/>
  <circle cx="39.5" cy="36.5" r="1.5" fill="white"/>
  <circle cx="59.5" cy="36.5" r="1.5" fill="white"/>
</svg>
